# xmcd
#
# Track frame offsets:
#	150
#	29148
#	44387
#	73935
#	97767
#	118821
#	146443
#	158442
#
# Disc length: 2643 seconds
#
# Revision: 0
# Processed by: cddbd v1.5.2PL0 Copyright (c) Steve Scherf et al.
# Submitted via: dBpowerAMP V4.0
#
DISCID=6a0a5108
DTITLE=Royal Hunt - Live 2006 1
DYEAR=2006
DGENRE=Progressive Metal
TTITLE0=Paper Blood
TTITLE1=Time
TTITLE2=The Mission
TTITLE3=Never Give Up
TTITLE4=Can't Let Go
TTITLE5=Last Goodbye
TTITLE6=Follow Me
TTITLE7=Cold City Lights
EXTD=
EXTT0=
EXTT1=
EXTT2=
EXTT3=
EXTT4=
EXTT5=
EXTT6=
EXTT7=
PLAYORDER=
